<?xml version="1.0" encoding="UTF-8"?>
<svg width="374px" height="246px" viewBox="0 0 374 246" version="1.1" xmlns="http://www.w3.org/2000/svg" xmlns:xlink="http://www.w3.org/1999/xlink">
    <!-- Generator: Sketch 55.2 (78181) - https://sketchapp.com -->
    <title>Group 199 Copy</title>
    <desc>Created with Sketch.</desc>
    <defs>
        <path d="M5.92992208,0.439107692 C2.85918701,0.439107692 0.368838961,2.91973846 0.368838961,5.97983846 L0.368838961,5.97983846 L0.368838961,136.129938 C0.368838961,139.191131 2.85918701,141.671762 5.92992208,141.671762 L5.92992208,141.671762 L205.376439,141.671762 C208.447174,141.671762 210.936974,139.191131 210.936974,136.129938 L210.936974,136.129938 L210.936974,5.97983846 C210.936974,2.91973846 208.447174,0.439107692 205.376439,0.439107692 L205.376439,0.439107692 L5.92992208,0.439107692 Z" id="path-1"></path>
        <linearGradient x1="22.0079524%" y1="76.2480959%" x2="85.0855303%" y2="17.1004511%" id="linearGradient-3">
            <stop stop-color="#F2F6FF" offset="0%"></stop>
            <stop stop-color="#CDD8FF" offset="100%"></stop>
        </linearGradient>
        <path d="M5.19915,0.312105263 C2.4244,0.312105263 0.176,2.46473684 0.176,5.11842105 L0.176,5.11842105 C0.176,7.77315789 2.4244,9.92473684 5.19915,9.92473684 L5.19915,9.92473684 L27.5638,9.92473684 C30.3369,9.92473684 32.58585,7.77315789 32.58585,5.11842105 L32.58585,5.11842105 C32.58585,2.46473684 30.3369,0.312105263 27.5638,0.312105263 L27.5638,0.312105263 L5.19915,0.312105263 Z" id="path-4"></path>
        <linearGradient x1="95.2942276%" y1="62.5271592%" x2="4.99422506%" y2="37.5527095%" id="linearGradient-6">
            <stop stop-color="#CFFFAE" offset="0%"></stop>
            <stop stop-color="#34EBE8" offset="100%"></stop>
        </linearGradient>
        <path d="M1.68682749,0.0529090909 C-0.159660819,0.0529090909 -0.661061404,2.14745455 1.04599708,2.72672727 L1.04599708,2.72672727 C201.342135,70.6298182 343.899561,15.7085455 373.114211,2.66072727 L373.114211,2.66072727 C374.652313,1.97454545 374.06124,0.0529090909 372.310985,0.0529090909 L372.310985,0.0529090909 L1.68682749,0.0529090909 Z" id="path-7"></path>
        <linearGradient x1="49.9999867%" y1="-44.4015116%" x2="49.9999867%" y2="136.700541%" id="linearGradient-9">
            <stop stop-color="#CDD8FF" offset="0%"></stop>
            <stop stop-color="#F2F6FF" offset="100%"></stop>
        </linearGradient>
        <path d="M0.732846154,25.2342162 C-0.246615385,28.027027 0.115769231,31.1264865 1.71123077,33.6055045 L1.71123077,33.6055045 L19.1633077,60.7351171 L21.7926154,59.2903514 L16.0466923,35.8531622 C15.1070769,32.0200541 15.5803846,27.9671261 17.3766923,24.4664955 L17.3766923,24.4664955 L27.5622308,4.62006306 L9.43007692,0.411063063 L0.732846154,25.2342162 Z" id="path-10"></path>
        <linearGradient x1="49.9801942%" y1="23.7995278%" x2="50.8860357%" y2="158.600733%" id="linearGradient-12">
            <stop stop-color="#7C1F3A" offset="0%"></stop>
            <stop stop-color="#F75959" offset="100%"></stop>
        </linearGradient>
        <path d="M0.257617647,0.45287963 L0.553235294,19.681963 C0.646558824,25.7873704 2.08608824,31.801 4.77235294,37.3136759 L4.77235294,37.3136759 L15.2173235,58.7405093 L18.8390588,56.3914352 C18.8390588,56.3914352 15.2832647,45.5665741 16.0181176,34.8974074 L16.0181176,34.8974074 C16.7518529,24.2276944 18.4344706,7.35314815 18.2237941,0.45287963 L18.2237941,0.45287963 L0.257617647,0.45287963 Z" id="path-13"></path>
        <linearGradient x1="60.6306178%" y1="9.62361794%" x2="35.6617929%" y2="99.7244177%" id="linearGradient-15">
            <stop stop-color="#7C1F3A" offset="0%"></stop>
            <stop stop-color="#F75959" offset="100%"></stop>
        </linearGradient>
        <path d="M12.22088,0.379166667 C12.19736,0.38675 12.17384,0.394333333 12.15032,0.403666667 L12.15032,0.403666667 C12.15032,0.403666667 10.99336,1.67766667 9.91088,1.7185 L9.91088,1.7185 C8.82728,1.75991667 8.72984,0.884916667 8.72984,0.884916667 L8.72984,0.884916667 C8.72984,0.884916667 8.36192,0.611333333 7.31024,1.10366667 L7.31024,1.10366667 C5.0176,2.47566667 2.79608,3.97483333 0.658,5.59591667 L0.658,5.59591667 C0.44464,5.73766667 0.38248,6.03225 0.51856,6.2545 L0.51856,6.2545 C0.5908,6.37291667 0.70896,6.45225 0.84224,6.47033333 L0.84224,6.47033333 C1.04384,6.52866667 7.65464,6.50533333 11.67096,6.48725 L11.67096,6.48725 C12.94272,6.48083333 13.96864,5.40225 13.9625076,4.0775 L13.9625076,4.0775 C13.96136,3.8605 13.93168,3.64408333 13.87512,3.43525 L13.87512,3.43525 L13.20312,0.951416667 C13.104,0.58625 12.7848,0.347666667 12.4376,0.347666667 L12.4376,0.347666667 C12.36592,0.347666667 12.29312,0.358166667 12.22088,0.379166667" id="path-16"></path>
        <linearGradient x1="63.9768654%" y1="64.2083698%" x2="23.3772335%" y2="30.5402548%" id="linearGradient-18">
            <stop stop-color="#7C1F3A" offset="0%"></stop>
            <stop stop-color="#F75959" offset="100%"></stop>
        </linearGradient>
        <path d="M9.28854545,0.7095 C9.26836364,0.73865 9.25090909,0.76945 9.23672727,0.8019 L9.23672727,0.8019 C8.97763636,1.36125 8.26690909,2.69775 7.24963636,2.94745 L7.24963636,2.94745 C6.72272727,3.12455 6.14618182,3.04535 5.68527273,2.73405 L5.68527273,2.73405 C5.68527273,2.73405 5.25545455,2.6389 4.49454545,3.4716 L4.49454545,3.4716 C3.00490909,5.5253 1.63418182,7.6637 0.386727273,9.87525 L0.386727273,9.87525 C0.146727273,10.42525 0.584181818,10.60455 0.872727273,10.5644 L0.872727273,10.5644 C1.074,10.53635 6.98836364,7.9673 10.5818182,6.40255 L10.5818182,6.40255 C11.718,5.907 12.2416364,4.576 11.7496364,3.4298 L11.7496364,3.4298 C11.6689091,3.24225 11.5636364,3.0657 11.436,2.90675 L11.436,2.90675 L10.4754545,1.06975 C10.3810909,0.8789 10.2463636,0.7117 10.0816364,0.57805 L10.0816364,0.57805 L10.0712727,0.57035 C9.97309091,0.50105 9.86072727,0.46805 9.74945455,0.46805 L9.74945455,0.46805 C9.57218182,0.46805 9.39818182,0.5522 9.28854545,0.7095" id="path-19"></path>
        <linearGradient x1="113.499457%" y1="77.3708722%" x2="18.8977872%" y2="40.8509753%" id="linearGradient-21">
            <stop stop-color="#7C1F3A" offset="0%"></stop>
            <stop stop-color="#F75959" offset="100%"></stop>
        </linearGradient>
        <path d="M0.782933333,0.5145 C-0.00586666667,1.29315789 -0.3088,6.31326316 1.75946667,8.37678947 L1.75946667,8.37678947 C3.82773333,10.4392105 8.37333333,11.0885526 8.37333333,11.0885526 L8.37333333,11.0885526 C7.6848,11.7351316 7.40853333,12.7298684 7.6592,13.6566316 L7.6592,13.6566316 C7.87413333,14.6707105 8.49866667,15.54 9.37493333,16.0434474 L9.37493333,16.0434474 C9.14933333,14.9536579 10.8272,13.7848421 11.9541333,15.1089474 L11.9541333,15.1089474 C13.08,16.4336053 10.3754667,17.8605 10.3754667,17.8605 L10.3754667,17.8605 L9.17813333,20.7419211 C9.18293333,20.7308684 9.33013333,20.4048158 10.4725333,19.8195789 L10.4725333,19.8195789 C11.6357333,19.2243947 14.6810667,17.4062368 15.4325333,14.0202632 L15.4325333,14.0202632 C16.1834667,10.6348421 13.8549333,10.1286316 13.8549333,10.1286316 L13.8549333,10.1286316 C14.6805333,8.883 14.4549333,6.39228947 11.7514667,5.49702632 L11.7514667,5.49702632 C9.0464,4.60176316 3.56266667,4.13423684 2.88693333,2.77255263 L2.88693333,2.77255263 C2.32906667,1.65015789 1.79786667,0.316657895 1.1872,0.316657895 L1.1872,0.316657895 C1.05653333,0.316657895 0.922133333,0.377447368 0.782933333,0.5145" id="path-22"></path>
        <linearGradient x1="55.974305%" y1="74.0947688%" x2="39.6651966%" y2="-19.2039163%" id="linearGradient-24">
            <stop stop-color="#7C1F3A" offset="0%"></stop>
            <stop stop-color="#F75959" offset="100%"></stop>
        </linearGradient>
        <path d="M3.38794521,11.9367551 L9.07232877,15.011449 C10.8564384,15.9773878 11.849863,17.9616122 11.5589041,19.9772449 L11.5589041,19.9772449 L9.34136986,35.3259184 L2.24109589,33.3086327 L0.311780822,37.3437551 L7.95232877,41.3799796 L6.33534247,47.2885714 C5.93643836,48.7465714 6.75780822,50.2613265 8.19232877,50.7148163 L8.19232877,50.7148163 C13.3457534,52.3403265 25.2991781,55.405102 34.6953425,52.434 L34.6953425,52.434 C35.8646575,52.0670204 36.6630137,50.9793061 36.6646575,49.7477755 L36.6646575,49.7477755 L36.6646575,45.9595102 C36.6646575,45.9595102 38.9808219,44.0959592 39.6750685,36.6472653 L39.6750685,36.6472653 C39.9775342,32.4380204 40.0663014,28.215551 39.940274,23.9974898 L39.940274,23.9974898 C39.8476712,19.2620204 37.5430137,14.8477959 33.72,12.0816735 L33.72,12.0816735 L27.5961644,7.8002449 C27.5961644,7.8002449 26.1934247,10.5426735 22.2323288,10.2313469 L22.2323288,10.2313469 C18.270137,9.92057143 18.8893151,5.67826531 18.8893151,5.67826531 L18.8893151,5.67826531 L3.38794521,0.190653061 L3.38794521,11.9367551 Z" id="path-25"></path>
        <linearGradient x1="69.0442299%" y1="105.200881%" x2="32.881254%" y2="8.0008548%" id="linearGradient-27">
            <stop stop-color="#F4564D" offset="0%"></stop>
            <stop stop-color="#FB9A3F" offset="100%"></stop>
        </linearGradient>
        <path d="M14.2789091,5.47446429 C14.3558182,8.68125 11.5516364,7.24714286 10.7830909,9.13446429 L10.7830909,9.13446429 C10.0145455,11.0207143 9.51709091,12.4542857 6.13472727,10.4925 L6.13472727,10.4925 C2.75290909,8.53071429 0.0256363636,12.3782143 0.0256363636,12.3782143 L0.0256363636,12.3782143 L14.9590909,14.5178571 C15.1936364,14.5516071 15.432,14.5526786 15.6665455,14.5210714 L15.6665455,14.5210714 C17.0509091,14.3357143 18.0190909,13.0826786 17.8298182,11.7230357 L17.8298182,11.7230357 L16.2370909,0.305892857 C15.3921818,3.51267857 14.202,2.26821429 14.2789091,5.47446429" id="path-28"></path>
        <linearGradient x1="135.802772%" y1="174.698682%" x2="45.6027737%" y2="45.3424411%" id="linearGradient-30">
            <stop stop-color="#7C1F3A" offset="0%"></stop>
            <stop stop-color="#7C1F3A" offset="100%"></stop>
        </linearGradient>
        <path d="M4.79922642,4.11365217 C7.39116981,6.74134783 11.9184528,4.83034783 12.4596038,7.55356522 L12.4596038,7.55356522 C13.0007547,10.2773478 17.0837358,9.1293913 18.009,11.0398261 L18.009,11.0398261 C18.2749245,11.590913 17.9263774,12.1476522 17.2982264,12.6614348 L17.2982264,12.6614348 C20.5708491,12.7744783 23.8401887,12.3466087 26.9825849,11.3947826 L26.9825849,11.3947826 C28.1535283,11.0200435 28.9523962,9.90317391 28.9562264,8.63652174 L28.9562264,8.63652174 L28.9562264,4.75065217 C25.600434,7.01152174 21.4222453,7.54791304 17.6330943,6.2043913 L17.6330943,6.2043913 L0.280698113,0.0536956522 C3.44115094,2.44173913 2.20728302,1.48595652 4.79922642,4.11365217" id="path-31"></path>
        <linearGradient x1="83.6683725%" y1="17.6043295%" x2="30.2683321%" y2="64.9063403%" id="linearGradient-33">
            <stop stop-color="#7C1F3A" offset="0%"></stop>
            <stop stop-color="#7C1F3A" offset="100%"></stop>
        </linearGradient>
        <polygon id="path-34" points="0.1 11.8161818 4.53944444 1.72472727 0.1 0.188727273"></polygon>
        <linearGradient x1="-13.8638535%" y1="103.321518%" x2="64.7537691%" y2="29.2249651%" id="linearGradient-36">
            <stop stop-color="#7C1F3A" offset="0%"></stop>
            <stop stop-color="#7C1F3A" offset="100%"></stop>
        </linearGradient>
        <polygon id="path-37" points="0 245 374 245 374 0.545234375 0 0.545234375"></polygon>
        <path d="M0.373090909,1.41488189 L1.28945455,23.3077953 C1.28945455,23.3077953 6.54109091,50.6011811 7.35,69.6395276 L7.35,69.6395276 L10.6178182,69.6395276 C10.6178182,69.6395276 21.2787273,38.5474016 16.5616364,0.312519685 L16.5616364,0.312519685 L0.373090909,1.41488189 Z" id="path-39"></path>
        <linearGradient x1="47.7583099%" y1="32.0467942%" x2="61.1020256%" y2="104.946797%" id="linearGradient-41">
            <stop stop-color="#153A5E" offset="0%"></stop>
            <stop stop-color="#21AAA5" offset="100%"></stop>
        </linearGradient>
        <path d="M0.419459459,4.38272727 C0.419459459,4.38272727 2.62756757,42.9261818 3.16054054,71.2009091 L3.16054054,71.2009091 C4.20432432,71.7774545 5.46810811,71.7774545 6.51189189,71.2009091 L6.51189189,71.2009091 C6.51189189,71.2009091 14.4308108,44.3847273 17.627027,24.102 L17.627027,24.102 C20.8232432,3.82036364 19.4032432,0.0283636364 19.4032432,0.0283636364 L19.4032432,0.0283636364 L0.419459459,4.38272727 Z" id="path-42"></path>
        <linearGradient x1="43.8114195%" y1="31.5113276%" x2="60.5464506%" y2="77.3109302%" id="linearGradient-44">
            <stop stop-color="#153A5E" offset="0%"></stop>
            <stop stop-color="#21AAA5" offset="100%"></stop>
        </linearGradient>
        <path d="M4.38763636,0.667090909 C3.23509091,2.74090909 1.00690909,0.908181818 1.00690909,0.908181818 L1.00690909,0.908181818 C0.582545455,0.908181818 0.238909091,1.25236364 0.238909091,1.67727273 L0.238909091,1.67727273 L0.238909091,4.662 C0.238909091,5.12836364 0.617454545,5.50690909 1.08381818,5.50690909 L1.08381818,5.50690909 L11.8401818,5.50690909 C11.8401818,5.50690909 11.994,4.73836364 10.7389091,4.30309091 L10.7389091,4.30309091 C9.48436364,3.86781818 6.00163636,0.949090909 5.36127273,0.667090909 L5.36127273,0.667090909 C5.21181818,0.575454545 5.04327273,0.529636364 4.87472727,0.529636364 L4.87472727,0.529636364 C4.70618182,0.529636364 4.53709091,0.575454545 4.38763636,0.667090909" id="path-45"></path>
        <linearGradient x1="50.001186%" y1="156.489174%" x2="50.001186%" y2="14.4986685%" id="linearGradient-47">
            <stop stop-color="#153A5E" offset="0%"></stop>
            <stop stop-color="#21AAA5" offset="100%"></stop>
        </linearGradient>
        <path d="M4.188,0.667090909 C3.03490909,2.74090909 0.807272727,0.908181818 0.807272727,0.908181818 L0.807272727,0.908181818 C0.383454545,0.908181818 0.0398181818,1.25236364 0.0398181818,1.67727273 L0.0398181818,1.67727273 L0.0398181818,4.662 C0.0398181818,5.12836364 0.417818182,5.50690909 0.884727273,5.50690909 L0.884727273,5.50690909 L11.6405455,5.50690909 C11.6405455,5.50690909 11.7943636,4.73836364 10.5398182,4.30309091 L10.5398182,4.30309091 C9.28418182,3.86781818 5.80145455,0.949090909 5.16109091,0.667090909 L5.16109091,0.667090909 C5.01163636,0.575454545 4.84309091,0.529636364 4.67454545,0.529636364 L4.67454545,0.529636364 C4.506,0.529636364 4.33745455,0.575454545 4.188,0.667090909" id="path-48"></path>
        <linearGradient x1="18.0397501%" y1="70.2285467%" x2="70.5422087%" y2="39.6863171%" id="linearGradient-50">
            <stop stop-color="#153A5E" offset="0%"></stop>
            <stop stop-color="#21AAA5" offset="100%"></stop>
        </linearGradient>
        <path d="M2.23821429,1.02846154 C-0.454285714,2.758 -0.327321429,7.56161538 0.603214286,9.60992308 L0.603214286,9.60992308 C1.53428571,11.6571538 2.85589286,11.3566923 4.14107143,13.8567692 L4.14107143,13.8567692 L4.14107143,11.1768462 C4.14107143,11.1768462 1.68375,10.8995385 2.13696429,9.205 L2.13696429,9.205 C2.58910714,7.51153846 3.97285714,8.49746154 4.77803571,9.205 L4.77803571,9.205 C5.01642857,9.43653846 5.32339286,9.58246154 5.65178571,9.62069231 L5.65178571,9.62069231 C5.86232143,9.63738462 6.04607143,9.47907692 6.06267857,9.26692308 L6.06267857,9.26692308 C6.06696429,9.21361538 6.06,9.16030769 6.04232143,9.10915385 L6.04232143,9.10915385 C5.76107143,8.316 5.18946429,6.57246154 5.38178571,6.07061538 L5.38178571,6.07061538 C5.51946429,5.71038462 6.135,5.99576923 7.15178571,6.28169231 L7.15178571,6.28169231 C7.98857143,6.517 9.09803571,6.75176923 10.4378571,6.62630769 L10.4378571,6.62630769 C13.4046429,6.349 15.2426786,4.60438462 14.6892857,2.25238462 L14.6892857,2.25238462 C14.1353571,-0.0990769231 12.62625,1.64553846 9.85928571,1.72146154 L9.85928571,1.72146154 C8.81196429,1.75053846 7.85142857,1.41076923 6.91607143,1.07046154 L6.91607143,1.07046154 C6.01767857,0.744153846 5.14285714,0.417307692 4.23642857,0.417307692 L4.23642857,0.417307692 C3.5925,0.417307692 2.93303571,0.582076923 2.23821429,1.02846154" id="path-51"></path>
        <linearGradient x1="25.8892257%" y1="72.9614474%" x2="60.9880274%" y2="11.4160321%" id="linearGradient-53">
            <stop stop-color="#153A5E" offset="0%"></stop>
            <stop stop-color="#21AAA5" offset="100%"></stop>
        </linearGradient>
        <path d="M1.6,0.754 C1.4275,1.061 1.076,1.223 0.7305,1.154 L0.7305,1.154 C0.3045,1.938 0.2195,2.8635 0.496,3.7125 L0.496,3.7125 L1.1385,3.8965 L1.993,0.204 C1.993,0.204 1.834,0.237 1.6,0.754" id="path-54"></path>
        <linearGradient x1="45.5887321%" y1="71.35665%" x2="51.0032786%" y2="20.1498118%" id="linearGradient-56">
            <stop stop-color="#FFA06E" offset="0%"></stop>
            <stop stop-color="#FFD6A0" offset="100%"></stop>
        </linearGradient>
        <path d="M6.96136508,3.78771429 C3.48311111,5.42810204 1.1932381,8.91330612 1.02431746,12.8211429 L1.02431746,12.8211429 L0.148412698,33.2612449 C0.0383174603,35.8223878 1.98387302,37.990102 4.49285714,38.1019592 L4.49285714,38.1019592 C4.63587302,38.1085714 4.77888889,38.1080204 4.92244444,38.1003061 L4.92244444,38.1003061 L2.97473016,50.705449 C2.81444444,51.7457755 3.49930159,52.7254898 4.51498413,52.9095306 L4.51498413,52.9095306 C9.30304762,53.7856531 22.5263492,55.5417551 32.038254,50.4536327 L32.038254,50.4536327 C32.752254,50.0783878 33.1575556,49.2854694 33.0517778,48.4727143 L33.0517778,48.4727143 C32.6534921,45.5137347 31.4575556,38.3488163 31.0986667,35.1771429 L31.0986667,35.1771429 L31.8509841,34.990898 L31.5390476,31.4351633 L33.7085714,31.0637755 L33.7085714,28.269551 C32.8186349,28.2133469 31.948127,27.9857755 31.1418413,27.5989592 L31.1418413,27.5989592 L31.519619,11.5802449 C31.6745079,7.44208163 29.024127,3.73812245 25.115746,2.63167347 L25.115746,2.63167347 L21.0686667,1.36377551 L19.6190794,5.14267347 L13.8860317,0.519612245 L6.96136508,3.78771429 Z" id="path-57"></path>
        <linearGradient x1="26.7416483%" y1="93.1219698%" x2="69.5179553%" y2="21.3214859%" id="linearGradient-59">
            <stop stop-color="#44EBA5" offset="0%"></stop>
            <stop stop-color="#C4EFA3" offset="100%"></stop>
        </linearGradient>
        <path d="M0.7215,3.5255 L2.731,3.189 L2.731,0.654 C1.907,0.603 1.1,0.3965 0.353,0.0455 L0.353,0.0455 C0.364,1.2145 0.487,2.38 0.7215,3.5255" id="path-60"></path>
        <linearGradient x1="-0.014892767%" y1="49.997796%" x2="100.005892%" y2="49.997796%" id="linearGradient-62">
            <stop stop-color="#44EBA5" offset="0%"></stop>
            <stop stop-color="#C4EFA3" offset="100%"></stop>
        </linearGradient>
        <path d="M0.3916,13.3219677 C0.38665,13.3713226 0.38335,13.420129 0.3817,13.4694839 L0.3817,13.4694839 C0.33605,14.7033548 1.3024,15.7398065 2.5399,15.7847742 L2.5399,15.7847742 L21.6931,16.4795806 C17.46855,16.1275161 17.3976,14.1023226 15.17615,14.5711935 L15.17615,14.5711935 C12.9547,15.0400645 11.87065,14.5152581 10.4247,12.2882581 L10.4247,12.2882581 C8.97875,10.0607097 3.9193,12.2992258 5.1568,7.66535484 L5.1568,7.66535484 C6.39485,3.03093548 1.7468,0.197967742 1.7468,0.197967742 L1.7468,0.197967742 L0.3916,13.3219677 Z" id="path-63"></path>
        <linearGradient x1="-1.49692156%" y1="113.904964%" x2="55.20406%" y2="47.6675275%" id="linearGradient-65">
            <stop stop-color="#21AAA5" offset="0%"></stop>
            <stop stop-color="#21AAA5" offset="100%"></stop>
        </linearGradient>
        <path d="M2.25816981,3.35127273 L0.282339623,15.8323636 C0.132962264,16.7830909 0.714603774,17.6967273 1.64150943,17.9656364 L1.64150943,17.9656364 C2.18266038,15.9109091 3.79298113,16.8943636 3.38807547,15.1843636 L3.38807547,15.1843636 C2.92462264,13.2376364 4.263,12.1112727 8.93692453,11.1381818 L8.93692453,11.1381818 C13.6113962,10.1645455 9.29696226,6.57872727 14.4283208,5.094 L14.4283208,5.094 C19.5596792,3.60872727 28.7959057,0.457090909 28.7959057,0.457090909 L28.7959057,0.457090909 L2.25816981,3.35127273 Z" id="path-66"></path>
        <linearGradient x1="-15.9663062%" y1="7.26783158%" x2="56.6339477%" y2="53.0420015%" id="linearGradient-68">
            <stop stop-color="#21AAA5" offset="0%"></stop>
            <stop stop-color="#21AAA5" offset="100%"></stop>
        </linearGradient>
        <path d="M0.4265,0.452 C0.3155,0.466 0.239,0.477333333 0.2335,0.478 L0.2335,0.478 C0.1425,0.756666667 0.106,1.06133333 0.1275,1.364 L0.1275,1.364 C0.1105,1.66466667 0.279,1.926 0.504,1.94933333 L0.504,1.94933333 C0.523,1.95133333 0.542,1.952 0.5615,1.95 L0.5615,1.95 L0.565,1.944 C0.5395,1.89066667 0.5305,1.826 0.54,1.764 L0.54,1.764 C0.542,1.74133333 0.546,1.71933333 0.551,1.698 L0.551,1.698 L0.7515,0.540666667 C0.6575,0.482 0.5555,0.451333333 0.4515,0.451333333 L0.4515,0.451333333 C0.4435,0.451333333 0.435,0.451333333 0.4265,0.452" id="path-69"></path>
        <linearGradient x1="47.1107052%" y1="71.3086887%" x2="50.7600843%" y2="22.3145506%" id="linearGradient-71">
            <stop stop-color="#FFA06E" offset="0%"></stop>
            <stop stop-color="#FFA06E" offset="100%"></stop>
        </linearGradient>
    </defs>
    <g id="Page-1" stroke="none" strokeWidth="1" fill="none" fillRule="evenodd">
        <g id="Group-199-Copy" transform="translate(0.000000, -1.000000)">
            <g id="Group-65" transform="translate(15.000000, 0.500000)">
                <path d="M82.4587179,9.24411227 L82.2525927,9.24411227 C81.2115784,9.24411227 80.3668479,8.39808094 80.3668479,7.35356397 L80.3668479,7.35301567 C80.3668479,6.30849869 81.2110317,5.46191906 82.252046,5.46191906 L82.2525927,5.46191906 L86.2985515,5.46191906 C87.3401125,5.46191906 88.1848431,4.61533943 88.1848431,3.57082245 C88.1848431,2.52630548 87.3406593,1.67972585 86.2985515,1.67972585 L67.6182504,1.67972585 C66.5766894,1.67972585 65.7325055,2.52630548 65.7325055,3.57082245 C65.7325055,4.61533943 66.5766894,5.46191906 67.6182504,5.46191906 L69.0917448,5.46191906 C70.1327591,5.46191906 70.9769429,6.30849869 70.9769429,7.35301567 C70.9769429,8.39753264 70.1327591,9.24411227 69.0917448,9.24411227 L60.1676719,9.24411227 C59.1261109,9.24411227 58.2819271,10.0906919 58.2819271,11.1352089 C58.2819271,12.1797258 59.1261109,13.0263055 60.1676719,13.0263055 L82.4587179,13.0263055 C83.5002789,13.0263055 84.3444628,12.1797258 84.3444628,11.1352089 C84.3444628,10.0906919 83.5002789,9.24411227 82.4587179,9.24411227" id="Fill-1" fill="#CDD9FF"></path>
                <path d="M299.456446,19.2150548 L299.15792,19.2150548 C297.65162,19.2150548 296.430725,17.9906945 296.430725,16.4801201 C296.430725,14.9695457 297.651074,13.7457337 299.157373,13.7457337 L299.15792,13.7457337 L305.007611,13.7457337 C306.51391,13.7457337 307.735353,12.5213734 307.735353,11.010799 C307.735353,9.50077285 306.514457,8.27641253 305.008158,8.27641253 L305.007611,8.27641253 L277.993728,8.27641253 C276.487429,8.27641253 275.26708,9.50077285 275.26708,11.010799 C275.26708,12.5208251 276.487429,13.7451854 277.993728,13.7457337 L280.126058,13.7457337 C281.631811,13.7451854 282.852706,14.9689974 282.853253,16.4795718 L282.853253,16.4801201 C282.853253,17.9906945 281.631811,19.2150548 280.126058,19.2150548 L267.22273,19.2150548 C265.71643,19.2150548 264.496082,20.4388668 264.495535,21.9494413 C264.495535,23.4600157 265.71643,24.684376 267.22273,24.684376 L299.45918,24.684376 C300.964933,24.684376 302.185828,23.4600157 302.185828,21.9499896 L302.185828,21.9494413 C302.185828,20.4388668 300.964933,19.2150548 299.45918,19.2150548 L299.456446,19.2150548 Z" id="Fill-3" fill="#CDD9FF"></path>
                <path d="M168.65694,9.77793995 C168.655847,14.877705 172.777258,19.0124569 177.862044,19.0135537 C182.947376,19.0146501 187.070427,14.8820914 187.071521,9.78232637 C187.073161,4.68310966 182.95175,0.548357702 177.866418,0.546695094 C172.79038,0.536843342 168.667329,4.65569452 168.65694,9.74613838 L168.65694,9.77793995 Z" id="Fill-5" fill="#CDD9FF"></path>
                <path d="M154.509754,49.4016501 C167.761909,61.4495091 187.966552,61.4495091 201.219801,49.4016501 C198.149246,35.1457755 188.847368,24.8031384 177.872979,24.8031384 C166.881639,24.8031384 157.579761,35.1474204 154.509754,49.4016501" id="Fill-7" fill="#CDD9FF"></path>
                <path d="M133.915823,27.663141 C133.914183,30.8882585 136.520546,33.5036632 139.736536,33.5053089 C142.95198,33.506953 145.56053,30.8937415 145.561624,27.668624 C145.563264,24.4435065 142.957448,21.8281018 139.741457,21.8264499 L139.738177,21.8264499 C136.527107,21.8215222 133.920744,24.428154 133.915823,27.6477885 L133.915823,27.663141 Z" id="Fill-9" fill="#CDD9FF"></path>
                <path d="M124.968623,52.7233238 C133.350319,60.3425405 146.128441,60.3425405 154.50959,52.7233238 C152.568076,43.7081279 146.68558,37.1663264 139.744027,37.1663264 C132.793726,37.1663264 126.910683,43.7081279 124.968623,52.7233238" id="Fill-11" fill="#CDD9FF"></path>
                <path d="M210.166783,27.663141 C210.166236,30.8882585 212.773146,33.5031149 215.98859,33.5036633 C219.20458,33.5042115 221.812036,30.8904517 221.81313,27.6653342 C221.813677,24.4402167 219.206767,21.8253603 215.990777,21.8248034 C212.780254,21.819329 210.172797,24.4248642 210.166783,27.6444987 L210.166783,27.663141 Z" id="Fill-13" fill="#CDD9FF"></path>
                <path d="M201.219582,52.7233238 C209.600731,60.3425405 222.378853,60.3425405 230.760002,52.7233238 C228.819036,43.7081279 222.935993,37.1663264 215.99444,37.1663264 C209.041952,37.1663264 203.161096,43.7081279 201.219582,52.7233238" id="Fill-15" fill="#CDD9FF"></path>
                <path d="M324.806729,65.8250757 L306.228124,76.7363029 C305.036206,77.4370339 303.503662,77.0362245 302.804914,75.8414726 C302.804368,75.8409243 302.803821,75.8398277 302.803821,75.8392794 L297.846428,67.3537441 C297.133464,66.1661201 297.515097,64.6237441 298.698813,63.9082089 C299.883076,63.1932219 301.421634,63.575389 302.134597,64.7630131 C302.145532,64.781107 302.155921,64.7986527 302.166309,64.8167467 L305.857973,71.1359373 L322.276365,61.4923864 C323.474296,60.7998799 325.004653,61.2122037 325.6952,62.4135352 C326.378639,63.6028042 325.982791,65.1216031 324.807276,65.8239791 L324.806729,65.8250757 Z M317.014978,44.7581828 C304.085406,41.3702193 290.864962,49.1352846 287.48604,62.1015509 C284.107664,75.0678172 291.851301,88.326329 304.780873,91.7142924 C317.710445,95.1022559 330.930889,87.3371906 334.309811,74.3709243 C337.688187,61.4041097 329.945097,48.1461462 317.015525,44.7581828 L317.014978,44.7581828 Z" id="Fill-17" fill="#CDD9FF"></path>
                <path d="M15.5794017,51.3828329 C14.1523811,52.1175587 12.8314303,53.043094 11.6515412,54.1336684 L6.8663748,44.4528329 C2.34036846,35.2983681 6.07085182,24.1974282 15.1999564,19.658577 C24.3279675,15.1197258 35.3969453,18.8613446 39.9229517,28.0158094 L44.7092116,37.6966449 C43.1301941,37.977376 41.5954635,38.4719452 40.1482132,39.1660966 L15.5794017,51.3828329 Z M30.8408677,71.222624 C28.6549564,66.8531984 30.4154952,61.5341123 34.7725555,59.3425457 C39.1296157,57.1504308 44.433649,58.9159661 46.6190135,63.2853916 C48.3297979,66.705705 47.6556537,70.8415535 44.9470483,73.5370104 L47.228641,78.1531723 C47.9525396,79.5162533 47.4375,81.2094125 46.0782765,81.9359138 C44.7190531,82.6618668 43.0301387,82.1448172 42.3062401,80.7822846 C42.2805428,80.7340339 42.2564857,80.685235 42.2340689,80.6358877 L39.9524762,76.0202742 C36.2017631,76.5554178 32.5303288,74.6221018 30.8403209,71.2220757 L30.8408677,71.222624 Z M7.48037639,75.4780026 L16.6215095,93.9700653 C21.0206696,102.866279 31.7774525,106.502076 40.6490372,102.091527 L65.2183954,89.8758877 C74.0899802,85.4653394 77.7160341,74.6774804 73.3179675,65.780718 L64.1762876,47.2886554 C61.3594255,41.6203003 55.7672544,37.8655222 49.4681339,37.4137206 L43.8562797,26.0638512 C38.3302655,14.6947911 24.6598455,9.97116188 13.3235063,15.512859 C1.98716719,21.0545561 -2.72364105,34.7626762 2.80237322,46.1317363 C2.84666006,46.2233029 2.89204041,46.3148695 2.93796751,46.4058877 L8.54982171,57.7557572 C5.09216719,63.0572977 4.68538431,69.7964883 7.48037639,75.4780026 L7.48037639,75.4780026 Z" id="Fill-19" fill="#CDD9FF"></path>
                <path d="M308.651926,209.504499 L305.848733,209.504499 C311.465508,203.521418 316.401578,196.929721 320.563448,189.851679 C326.836871,179.155386 335.848971,161.904133 337.538432,140.02301 L338.415968,140.091548 C336.947394,158.052305 331.439969,175.446117 322.30649,190.96583 C315.369311,202.785047 308.923115,209.23583 308.651926,209.504499" id="Fill-21" fill="#CDD9FF"></path>
                <path d="M337.540564,140.023175 C337.540564,140.023175 332.701816,136.559546 338.4181,128.689755 C338.4181,128.689755 343.027212,135.339572 338.4181,140.091713 L337.540564,140.023175 Z" id="Fill-23" fill="#CDD9FF"></path>
                <path d="M337.379874,148.658397 C337.379874,148.658397 331.516514,149.640407 330.009668,140.02153 C330.009668,140.02153 337.28802,142.029415 337.379874,148.658397" id="Fill-25" fill="#CDD9FF"></path>
                <path d="M337.379327,148.658397 C337.379327,148.658397 343.243781,149.640407 344.749533,140.02153 C344.749533,140.02153 337.471181,142.029415 337.379327,148.658397" id="Fill-27" fill="#CDD9FF"></path>
                <path d="M335.087128,157.977407 C335.087128,157.977407 329.146129,158.181376 328.908292,148.447903 C328.908292,148.447903 335.862968,151.392838 335.087128,157.977407" id="Fill-29" fill="#CDD9FF"></path>
                <path d="M335.085542,157.977407 C335.085542,157.977407 340.771208,159.720462 343.519179,150.381219 C343.519179,150.381219 336.041263,151.417512 335.085542,157.977407" id="Fill-31" fill="#CDD9FF"></path>
                <path d="M333.123307,166.260893 C333.123307,166.260893 327.182308,166.46541 326.944471,156.731389 C326.944471,156.731389 333.899147,159.676872 333.123307,166.260893" id="Fill-33" fill="#CDD9FF"></path>
                <path d="M333.12276,166.260893 C333.12276,166.260893 338.808972,168.004496 341.556944,158.665253 C341.556944,158.665253 334.077934,159.700997 333.12276,166.260893" id="Fill-35" fill="#CDD9FF"></path>
                <path d="M329.446624,175.132269 C329.446624,175.132269 323.572876,174.208927 325.168296,164.604854 C325.168296,164.604854 331.443906,168.81253 329.446624,175.132269" id="Fill-37" fill="#CDD9FF"></path>
                <path d="M329.446624,175.132762 C329.446624,175.132762 334.701996,177.919238 339.156925,169.265922 C339.156925,169.265922 331.618319,168.868402 329.446624,175.132762" id="Fill-39" fill="#CDD9FF"></path>
                <path d="M325.342764,183.711783 C325.342764,183.711783 319.492526,182.66288 321.290791,173.094995 C321.290791,173.094995 327.475094,177.437005 325.342764,183.711783" id="Fill-41" fill="#CDD9FF"></path>
                <path d="M325.342764,183.711783 C325.342764,183.711783 330.5369,186.611209 335.176084,178.057684 C335.176084,178.057684 327.64732,177.498963 325.342764,183.711783" id="Fill-43" fill="#CDD9FF"></path>
                <path d="M319.733261,194.188974 C319.733261,194.188974 313.951914,192.800671 316.304037,183.353961 C316.304037,183.353961 322.225899,188.049627 319.733261,194.188974" id="Fill-45" fill="#CDD9FF"></path>
                <path d="M319.732714,194.189522 C319.732714,194.189522 324.75025,197.386676 329.877682,189.118817 C329.877682,189.118817 322.394299,188.121454 319.732714,194.189522" id="Fill-47" fill="#CDD9FF"></path>
                <path d="M39.3348114,198.278765 C39.3348114,198.278765 24.1684802,196.559287 26.8289715,183.443883 C29.488916,170.328478 18.0476006,169.986885 12.9912456,164.821324 C7.93489065,159.655214 22.8365943,158.247721 22.8365943,146.810123 C22.8365943,135.371977 28.1592171,131.754822 33.4807464,136.899 C38.8028225,142.043178 33.2150254,153.250488 39.3348114,156.185554 C45.4551442,159.121715 48.8324263,167.788191 46.1735753,174.134796 C43.5141775,180.481402 49.2266339,189.406128 46.6716656,194.538243 C44.1172441,199.669261 39.3348114,198.278765 39.3348114,198.278765" id="Fill-49" fill="#CDD9FF"></path>
                <polygon id="Fill-51" fill="#CDD9FF" points="38.9386355 197.937117 39.7314247 197.842261 41.1141585 209.500277 40.321916 209.595133"></polygon>
                <path d="M38.9386355,198.326413 C36.8369239,180.606909 28.3863376,145.675081 28.3032314,145.324167 L29.0790713,145.134454 C29.1638177,145.486465 37.6236989,180.465446 39.7314247,198.232104 L38.9386355,198.326413 Z" id="Fill-53" fill="#F3F7FF"></path>
                <path d="M29.2471426,165.924619 C29.1290444,165.925167 29.0175071,165.873078 28.940962,165.782608 C26.8430777,163.670546 23.9704469,162.51582 20.9977607,162.589292 C20.77742,162.590389 20.5980856,162.411642 20.5969908,162.190676 C20.5964453,161.96971 20.7746862,161.789867 20.9944802,161.78877 L20.9977607,161.78877 C26.5740761,161.78877 29.433038,165.125193 29.5522298,165.267752 C29.6938384,165.436629 29.6719683,165.688849 29.5035689,165.831407 C29.4319445,165.891721 29.3406371,165.925715 29.2465959,165.925715 L29.2471426,165.924619 Z" id="Fill-55" fill="#F3F7FF"></path>
                <path d="M38.2984445,172.263274 C38.1147361,172.263274 37.9632861,172.117974 37.954538,171.934292 C37.9425095,171.707295 37.7002987,166.32954 41.2383257,162.693196 C41.3646252,162.550637 41.5827789,162.538574 41.7249342,162.665781 C41.8665428,162.792987 41.8791181,163.011211 41.751725,163.15377 C41.745164,163.160898 41.7380563,163.168574 41.7304017,163.175702 C38.4012338,166.597112 38.6390705,171.845467 38.6418043,171.897556 C38.6516458,172.088366 38.5051165,172.251211 38.3143003,172.260533 L38.3137536,172.260533 L38.2984445,172.263274 Z" id="Fill-57" fill="#F3F7FF"></path>
                <path d="M34.3366307,182.850802 C34.2289208,182.850802 34.1299588,182.791018 34.0802044,182.695614 C33.1441664,181.117598 31.6307591,179.969452 29.862019,179.495718 C29.7078352,179.45624 29.6148875,179.298329 29.6548003,179.143708 C29.6947132,178.989086 29.8516307,178.896423 30.0058146,178.935901 C31.93858,179.438695 33.5908621,180.69705 34.5919635,182.429687 C34.6652282,182.571149 34.6094596,182.745509 34.4683978,182.818433 C34.4279382,182.839817 34.3825578,182.851332 34.3366307,182.850802" id="Fill-59" fill="#F3F7FF"></path>
                <path d="M40.8356981,190.659274 C40.8192956,190.659274 40.8023463,190.658726 40.7859437,190.656533 C40.5688835,190.629666 40.4141529,190.432277 40.4393035,190.214052 C40.4540658,190.092329 40.8466331,187.201128 45.7974651,183.669509 C45.9773463,183.541755 46.2261181,183.583974 46.3546046,183.763817 C46.4819976,183.944209 46.4398978,184.194235 46.2600166,184.32199 C41.6377821,187.618386 41.2342797,190.284235 41.2304525,190.311102 C41.2036616,190.509587 41.0352623,190.657629 40.8356981,190.659274" id="Fill-61" fill="#F3F7FF"></path>
                <path d="M67.3798122,195.891728 L67.3798122,63.0182037 C67.3798122,55.4927467 73.4629659,49.392329 80.967126,49.392329 L275.268283,49.392329 C282.771896,49.392329 288.85505,55.4927467 288.85505,63.0182037 L288.85505,195.89118 C288.85505,203.417185 282.771896,209.518151 275.267736,209.518151 L80.967126,209.518151 C73.4629659,209.518151 67.3798122,203.417185 67.3798122,195.891728" id="Fill-63" fill="#4351A3"></path>
            </g>
            <g id="Group-68" transform="translate(87.000000, 59.500000)">
                <mask id="mask-2" fill="white">
                    <use xlink:href="#path-1"></use>
                </mask>
                <g id="Clip-67"></g>
                <path d="M5.92992208,0.439107692 C2.85918701,0.439107692 0.368838961,2.91973846 0.368838961,5.97983846 L0.368838961,5.97983846 L0.368838961,136.129938 C0.368838961,139.191131 2.85918701,141.671762 5.92992208,141.671762 L5.92992208,141.671762 L205.376439,141.671762 C208.447174,141.671762 210.936974,139.191131 210.936974,136.129938 L210.936974,136.129938 L210.936974,5.97983846 C210.936974,2.91973846 208.447174,0.439107692 205.376439,0.439107692 L205.376439,0.439107692 L5.92992208,0.439107692 Z" id="Fill-66" fill="url(#linearGradient-3)" mask="url(#mask-2)"></path>
            </g>
            <g id="Group-95" transform="translate(87.000000, 59.500000)">
                <path d="M58.9917636,26.4357031 L152.320626,26.4357031 C158.907114,26.4357031 164.245688,31.7563338 164.245688,38.3194646 L164.245688,141.668157 L47.0667013,141.668157 L47.0667013,38.3194646 C47.0667013,31.7563338 52.4058234,26.4357031 58.9917636,26.4357031" id="Fill-69" fill="#FFFFFF"></path>
                <path d="M6.02128234,0.438725385 L205.300643,0.438725385 C208.413578,0.438725385 210.93681,2.95321769 210.93681,6.05591769 L210.93681,14.2553254 L0.369222597,14.2553254 L0.369222597,6.07121 C0.369222597,2.96031769 2.89957844,0.438725385 6.02128234,0.438725385" id="Fill-71" fill="#F3F7FF"></path>
                <path d="M15.1240964,5.30107846 C16.2580158,5.30107846 17.177099,6.21697846 17.177099,7.34697077 C17.177099,8.47696308 16.2580158,9.39286308 15.1240964,9.39286308 C13.9907249,9.39286308 13.0710938,8.47696308 13.0710938,7.34697077 C13.0710938,6.21697846 13.9907249,5.30107846 15.1240964,5.30107846" id="Fill-73" fill="#FF6382"></path>
                <path d="M22.6951052,5.30107846 C23.8284766,5.30107846 24.7481078,6.21697846 24.7481078,7.34697077 C24.7481078,8.47696308 23.8284766,9.39286308 22.6951052,9.39286308 C21.5611857,9.39286308 20.6421026,8.47696308 20.6421026,7.34697077 C20.6421026,6.21697846 21.5611857,5.30107846 22.6951052,5.30107846" id="Fill-75" fill="#FEC40C"></path>
                <path d="M30.2656208,5.30107846 C31.3995403,5.30107846 32.3186234,6.21697846 32.3186234,7.34697077 C32.3186234,8.47696308 31.3995403,9.39286308 30.2656208,9.39286308 C29.1322494,9.39286308 28.2126182,8.47696308 28.2126182,7.34697077 C28.2126182,6.21697846 29.1322494,5.30107846 30.2656208,5.30107846" id="Fill-77" fill="#10C392"></path>
                <path d="M105.654879,33.5618638 C112.639802,33.5618638 118.302822,39.2052715 118.302822,46.1660023 C118.302822,53.1272792 112.639802,58.7701408 105.654879,58.7701408 C98.6694094,58.7701408 93.0069366,53.1272792 93.0069366,46.1660023 C93.0069366,39.2052715 98.6694094,33.5618638 105.654879,33.5618638" id="Fill-79" fill="#A8B7E6"></path>
                <path d="M105.654879,38.9721731 C107.346716,38.9721731 108.71849,40.33865 108.71849,42.0251731 C108.71849,43.71115 107.346716,45.0781731 105.654879,45.0781731 C103.962495,45.0781731 102.590721,43.71115 102.590721,42.0251731 C102.590721,40.33865 103.962495,38.9721731 105.654879,38.9721731" id="Fill-81" fill="#FFFFFF"></path>
                <path d="M113.263375,53.6516962 C109.115718,57.8390577 102.346728,57.8832962 98.144266,53.7494577 C98.1119309,53.7172346 98.0784997,53.6844654 98.0456166,53.6516962 C99.3834114,49.8832346 102.285346,47.2698885 105.65477,47.2698885 C109.024193,47.2698885 111.926128,49.8821423 113.263375,53.6516962" id="Fill-83" fill="#FFFFFF"></path>
                <path d="M65.9495023,67.1527285 L145.358393,67.1527285 C147.987398,67.1527285 150.119321,69.2767208 150.119321,71.8971669 L150.119321,72.3832438 C150.119321,75.0031438 147.987398,77.1276823 145.358393,77.1276823 L65.9495023,77.1276823 C63.3199491,77.1276823 61.188027,75.0031438 61.188027,72.3832438 L61.188027,71.8971669 C61.188027,69.2767208 63.3199491,67.1527285 65.9495023,67.1527285" id="Fill-85" fill="#E6EEFC"></path>
                <path d="M65.9495023,82.2295785 L145.358393,82.2295785 C147.987398,82.2295785 150.119321,84.3541169 150.119321,86.9745631 L150.119321,87.4600938 C150.119321,90.08054 147.987398,92.2050785 145.358393,92.2050785 L65.9495023,92.2050785 C63.3199491,92.2050785 61.188027,90.08054 61.188027,87.4600938 L61.188027,86.9745631 C61.188027,84.3541169 63.3199491,82.2295785 65.9495023,82.2295785" id="Fill-87" fill="#E6EEFC"></path>
                <path d="M71.8250029,98.9992869 L103.00039,98.9992869 C104.481774,98.9992869 105.682556,100.19591 105.682556,101.67271 L105.682556,101.673256 C105.682556,103.148964 104.481774,104.345587 103.00039,104.345587 L71.8250029,104.345587 C70.3436184,104.345587 69.1428366,103.148964 69.1428366,101.673256 L69.1428366,101.67271 C69.1428366,100.19591 70.3436184,98.9992869 71.8250029,98.9992869" id="Fill-89" fill="#E6EEFC"></path>
                <path d="M115.90515,98.9992869 L147.080537,98.9992869 C148.561373,98.9992869 149.762155,100.19591 149.762155,101.67271 L149.762155,101.673256 C149.762155,103.148964 148.561373,104.345587 147.080537,104.345587 L115.90515,104.345587 C114.423765,104.345587 113.222436,103.148964 113.222436,101.673256 L113.222436,101.67271 C113.222436,100.19591 114.423765,98.9992869 115.90515,98.9992869" id="Fill-91" fill="#FF6382"></path>
                <path d="M63.9301501,98.9992869 L63.9312462,98.9992869 C65.4120826,98.9992869 66.6134125,100.19591 66.6134125,101.67271 L66.6134125,101.673256 C66.6134125,103.148964 65.4120826,104.345587 63.9312462,104.345587 L63.9301501,104.345587 C62.4493138,104.345587 61.2479839,103.148964 61.2479839,101.673256 L61.2479839,101.67271 C61.2479839,100.19591 62.4493138,98.9992869 63.9301501,98.9992869" id="Fill-93" fill="#E6EEFC"></path>
            </g>
            <g id="Group-98" transform="translate(177.000000, 173.500000)">
                <mask id="mask-5" fill="white">
                    <use xlink:href="#path-4"></use>
                </mask>
                <g id="Clip-97"></g>
                <path d="M5.19915,0.312105263 C2.4244,0.312105263 0.176,2.46473684 0.176,5.11842105 L0.176,5.11842105 C0.176,7.77315789 2.4244,9.92473684 5.19915,9.92473684 L5.19915,9.92473684 L27.5638,9.92473684 C30.3369,9.92473684 32.58585,7.77315789 32.58585,5.11842105 L32.58585,5.11842105 C32.58585,2.46473684 30.3369,0.312105263 27.5638,0.312105263 L27.5638,0.312105263 L5.19915,0.312105263 Z" id="Fill-96" fill="url(#linearGradient-6)" mask="url(#mask-5)"></path>
            </g>
            <g id="Group-101" transform="translate(0.000000, 210.500000)">
                <mask id="mask-8" fill="white">
                    <use xlink:href="#path-7"></use>
                </mask>
                <g id="Clip-100"></g>
                <path d="M1.68682749,0.0529090909 C-0.159660819,0.0529090909 -0.661061404,2.14745455 1.04599708,2.72672727 L1.04599708,2.72672727 C201.342135,70.6298182 343.899561,15.7085455 373.114211,2.66072727 L373.114211,2.66072727 C374.652313,1.97454545 374.06124,0.0529090909 372.310985,0.0529090909 L372.310985,0.0529090909 L1.68682749,0.0529090909 Z" id="Fill-99" fill="url(#linearGradient-9)" mask="url(#mask-8)"></path>
            </g>
            <polygon id="Fill-102" fill="#FFB677" points="333 206.174335 336.195561 203.5 337 205.390253 333.504562 207.5"></polygon>
            <g id="Group-106" transform="translate(299.000000, 144.500000)">
                <mask id="mask-11" fill="white">
                    <use xlink:href="#path-10"></use>
                </mask>
                <g id="Clip-105"></g>
                <path d="M0.732846154,25.2342162 C-0.246615385,28.027027 0.115769231,31.1264865 1.71123077,33.6055045 L1.71123077,33.6055045 L19.1633077,60.7351171 L21.7926154,59.2903514 L16.0466923,35.8531622 C15.1070769,32.0200541 15.5803846,27.9671261 17.3766923,24.4664955 L17.3766923,24.4664955 L27.5622308,4.62006306 L9.43007692,0.411063063 L0.732846154,25.2342162 Z" id="Fill-104" fill="url(#linearGradient-12)" mask="url(#mask-11)"></path>
            </g>
            <g id="Group-109" transform="translate(317.000000, 146.500000)">
                <mask id="mask-14" fill="white">
                    <use xlink:href="#path-13"></use>
                </mask>
                <g id="Clip-108"></g>
                <path d="M0.257617647,0.45287963 L0.553235294,19.681963 C0.646558824,25.7873704 2.08608824,31.801 4.77235294,37.3136759 L4.77235294,37.3136759 L15.2173235,58.7405093 L18.8390588,56.3914352 C18.8390588,56.3914352 15.2832647,45.5665741 16.0181176,34.8974074 L16.0181176,34.8974074 C16.7518529,24.2276944 18.4344706,7.35314815 18.2237941,0.45287963 L18.2237941,0.45287963 L0.257617647,0.45287963 Z" id="Fill-107" fill="url(#linearGradient-15)" mask="url(#mask-14)"></path>
            </g>
            <polygon id="Fill-110" fill="#FFB677" points="318 205.115196 320.399902 203.5 321 205.115196 318.576999 206.5"></polygon>
            <g id="Group-114" transform="translate(309.000000, 204.500000)">
                <mask id="mask-17" fill="white">
                    <use xlink:href="#path-16"></use>
                </mask>
                <g id="Clip-113"></g>
                <path d="M12.22088,0.379166667 C12.19736,0.38675 12.17384,0.394333333 12.15032,0.403666667 L12.15032,0.403666667 C12.15032,0.403666667 10.99336,1.67766667 9.91088,1.7185 L9.91088,1.7185 C8.82728,1.75991667 8.72984,0.884916667 8.72984,0.884916667 L8.72984,0.884916667 C8.72984,0.884916667 8.36192,0.611333333 7.31024,1.10366667 L7.31024,1.10366667 C5.0176,2.47566667 2.79608,3.97483333 0.658,5.59591667 L0.658,5.59591667 C0.44464,5.73766667 0.38248,6.03225 0.51856,6.2545 L0.51856,6.2545 C0.5908,6.37291667 0.70896,6.45225 0.84224,6.47033333 L0.84224,6.47033333 C1.04384,6.52866667 7.65464,6.50533333 11.67096,6.48725 L11.67096,6.48725 C12.94272,6.48083333 13.96864,5.40225 13.9625076,4.0775 L13.9625076,4.0775 C13.96136,3.8605 13.93168,3.64408333 13.87512,3.43525 L13.87512,3.43525 L13.20312,0.951416667 C13.104,0.58625 12.7848,0.347666667 12.4376,0.347666667 L12.4376,0.347666667 C12.36592,0.347666667 12.29312,0.358166667 12.22088,0.379166667" id="Fill-112" fill="url(#linearGradient-18)" mask="url(#mask-17)"></path>
            </g>
            <g id="Group-117" transform="translate(327.000000, 203.500000)">
                <mask id="mask-20" fill="white">
                    <use xlink:href="#path-19"></use>
                </mask>
                <g id="Clip-116"></g>
                <path d="M9.28854545,0.7095 C9.26836364,0.73865 9.25090909,0.76945 9.23672727,0.8019 L9.23672727,0.8019 C8.97763636,1.36125 8.26690909,2.69775 7.24963636,2.94745 L7.24963636,2.94745 C6.72272727,3.12455 6.14618182,3.04535 5.68527273,2.73405 L5.68527273,2.73405 C5.68527273,2.73405 5.25545455,2.6389 4.49454545,3.4716 L4.49454545,3.4716 C3.00490909,5.5253 1.63418182,7.6637 0.386727273,9.87525 L0.386727273,9.87525 C0.146727273,10.42525 0.584181818,10.60455 0.872727273,10.5644 L0.872727273,10.5644 C1.074,10.53635 6.98836364,7.9673 10.5818182,6.40255 L10.5818182,6.40255 C11.718,5.907 12.2416364,4.576 11.7496364,3.4298 L11.7496364,3.4298 C11.6689091,3.24225 11.5636364,3.0657 11.436,2.90675 L11.436,2.90675 L10.4754545,1.06975 C10.3810909,0.8789 10.2463636,0.7117 10.0816364,0.57805 L10.0816364,0.57805 L10.0712727,0.57035 C9.97309091,0.50105 9.86072727,0.46805 9.74945455,0.46805 L9.74945455,0.46805 C9.57218182,0.46805 9.39818182,0.5522 9.28854545,0.7095" id="Fill-115" fill="url(#linearGradient-21)" mask="url(#mask-20)"></path>
            </g>
            <g id="Group-122" transform="translate(316.000000, 87.500000)">
                <path d="M11.3484031,15.6386111 L12.8619344,11.9625 L16.6614344,7.43472222 C16.6614344,7.43472222 16.6614344,3.17027778 14.3037469,1.91805556 C11.9471219,0.665833333 6.05130938,0.0291666667 6.05130938,0.0291666667 C6.05130938,0.0291666667 2.89249688,6.03694444 2.29377813,7.9675 C1.69505937,9.89805556 4.12659062,11.1497222 4.12659062,11.1497222 L2.90471563,13.4975 C2.90471563,13.4975 -3.18181562,17.9841667 2.65555938,19.3402778 C8.49240313,20.6963889 10.3879031,18.4513889 10.3879031,18.4513889 L11.3484031,15.6386111 Z" id="Fill-118" fill="#FFB677"></path>
                <path d="M4.12722813,11.1523889 L2.90535313,13.5001667 C2.33904063,13.9312778 1.81097813,14.4146111 1.32700938,14.9446111 C2.37994688,16.7746111 3.60394688,18.5846111 3.60394688,18.5846111 C3.60394688,18.5846111 2.96591562,15.1573889 3.90622812,14.7107222 C4.84654063,14.2640556 5.51166563,14.8279444 5.47447812,13.8890556 C5.43782188,12.9501667 5.88672813,13.1062778 7.34554063,13.1457222 C8.80435313,13.1851667 9.36375938,11.5801667 9.36375938,11.5801667 C7.62869688,12.1268333 5.76029062,11.9740556 4.12722813,11.1523889" id="Fill-120" fill="#FF8364"></path>
            </g>
            <g id="Group-125" transform="translate(320.000000, 79.500000)">
                <mask id="mask-23" fill="white">
                    <use xlink:href="#path-22"></use>
                </mask>
                <g id="Clip-124"></g>
                <path d="M0.782933333,0.5145 C-0.00586666667,1.29315789 -0.3088,6.31326316 1.75946667,8.37678947 L1.75946667,8.37678947 C3.82773333,10.4392105 8.37333333,11.0885526 8.37333333,11.0885526 L8.37333333,11.0885526 C7.6848,11.7351316 7.40853333,12.7298684 7.6592,13.6566316 L7.6592,13.6566316 C7.87413333,14.6707105 8.49866667,15.54 9.37493333,16.0434474 L9.37493333,16.0434474 C9.14933333,14.9536579 10.8272,13.7848421 11.9541333,15.1089474 L11.9541333,15.1089474 C13.08,16.4336053 10.3754667,17.8605 10.3754667,17.8605 L10.3754667,17.8605 L9.17813333,20.7419211 C9.18293333,20.7308684 9.33013333,20.4048158 10.4725333,19.8195789 L10.4725333,19.8195789 C11.6357333,19.2243947 14.6810667,17.4062368 15.4325333,14.0202632 L15.4325333,14.0202632 C16.1834667,10.6348421 13.8549333,10.1286316 13.8549333,10.1286316 L13.8549333,10.1286316 C14.6805333,8.883 14.4549333,6.39228947 11.7514667,5.49702632 L11.7514667,5.49702632 C9.0464,4.60176316 3.56266667,4.13423684 2.88693333,2.77255263 L2.88693333,2.77255263 C2.32906667,1.65015789 1.79786667,0.316657895 1.1872,0.316657895 L1.1872,0.316657895 C1.05653333,0.316657895 0.922133333,0.377447368 0.782933333,0.5145" id="Fill-123" fill="url(#linearGradient-24)" mask="url(#mask-23)"></path>
            </g>
            <g id="Group-128" transform="translate(300.000000, 95.500000)">
                <mask id="mask-26" fill="white">
                    <use xlink:href="#path-25"></use>
                </mask>
                <g id="Clip-127"></g>
                <path d="M3.38794521,11.9367551 L9.07232877,15.011449 C10.8564384,15.9773878 11.849863,17.9616122 11.5589041,19.9772449 L11.5589041,19.9772449 L9.34136986,35.3259184 L2.24109589,33.3086327 L0.311780822,37.3437551 L7.95232877,41.3799796 L6.33534247,47.2885714 C5.93643836,48.7465714 6.75780822,50.2613265 8.19232877,50.7148163 L8.19232877,50.7148163 C13.3457534,52.3403265 25.2991781,55.405102 34.6953425,52.434 L34.6953425,52.434 C35.8646575,52.0670204 36.6630137,50.9793061 36.6646575,49.7477755 L36.6646575,49.7477755 L36.6646575,45.9595102 C36.6646575,45.9595102 38.9808219,44.0959592 39.6750685,36.6472653 L39.6750685,36.6472653 C39.9775342,32.4380204 40.0663014,28.215551 39.940274,23.9974898 L39.940274,23.9974898 C39.8476712,19.2620204 37.5430137,14.8477959 33.72,12.0816735 L33.72,12.0816735 L27.5961644,7.8002449 C27.5961644,7.8002449 26.1934247,10.5426735 22.2323288,10.2313469 L22.2323288,10.2313469 C18.270137,9.92057143 18.8893151,5.67826531 18.8893151,5.67826531 L18.8893151,5.67826531 L3.38794521,0.190653061 L3.38794521,11.9367551 Z" id="Fill-126" fill="url(#linearGradient-27)" mask="url(#mask-26)"></path>
            </g>
            <g id="Group-131" transform="translate(310.000000, 118.500000)">
                <mask id="mask-29" fill="white">
                    <use xlink:href="#path-28"></use>
                </mask>
                <g id="Clip-130"></g>
                <path d="M14.2789091,5.47446429 C14.3558182,8.68125 11.5516364,7.24714286 10.7830909,9.13446429 L10.7830909,9.13446429 C10.0145455,11.0207143 9.51709091,12.4542857 6.13472727,10.4925 L6.13472727,10.4925 C2.75290909,8.53071429 0.0256363636,12.3782143 0.0256363636,12.3782143 L0.0256363636,12.3782143 L14.9590909,14.5178571 C15.1936364,14.5516071 15.432,14.5526786 15.6665455,14.5210714 L15.6665455,14.5210714 C17.0509091,14.3357143 18.0190909,13.0826786 17.8298182,11.7230357 L17.8298182,11.7230357 L16.2370909,0.305892857 C15.3921818,3.51267857 14.202,2.26821429 14.2789091,5.47446429" id="Fill-129" fill="url(#linearGradient-30)" mask="url(#mask-29)"></path>
            </g>
            <g id="Group-134" transform="translate(308.000000, 136.500000)">
                <mask id="mask-32" fill="white">
                    <use xlink:href="#path-31"></use>
                </mask>
                <g id="Clip-133"></g>
                <path d="M4.79922642,4.11365217 C7.39116981,6.74134783 11.9184528,4.83034783 12.4596038,7.55356522 L12.4596038,7.55356522 C13.0007547,10.2773478 17.0837358,9.1293913 18.009,11.0398261 L18.009,11.0398261 C18.2749245,11.590913 17.9263774,12.1476522 17.2982264,12.6614348 L17.2982264,12.6614348 C20.5708491,12.7744783 23.8401887,12.3466087 26.9825849,11.3947826 L26.9825849,11.3947826 C28.1535283,11.0200435 28.9523962,9.90317391 28.9562264,8.63652174 L28.9562264,8.63652174 L28.9562264,4.75065217 C25.600434,7.01152174 21.4222453,7.54791304 17.6330943,6.2043913 L17.6330943,6.2043913 L0.280698113,0.0536956522 C3.44115094,2.44173913 2.20728302,1.48595652 4.79922642,4.11365217" id="Fill-132" fill="url(#linearGradient-33)" mask="url(#mask-32)"></path>
            </g>
            <g id="Group-137" transform="translate(303.000000, 95.500000)">
                <mask id="mask-35" fill="white">
                    <use xlink:href="#path-34"></use>
                </mask>
                <g id="Clip-136"></g>
                <polygon id="Fill-135" fill="url(#linearGradient-36)" mask="url(#mask-35)" points="0.1 11.8161818 4.53944444 1.72472727 0.1 0.188727273"></polygon>
            </g>
            <g id="Group-142" transform="translate(0.000000, 1.500000)">
                <path d="M300.494127,131.670656 C299.350803,130.924719 298.158815,130.255891 296.926364,129.668 C294.538013,128.48675 293.30611,126.406437 295.026291,126.201359 C296.746473,125.996281 299.595762,127.100969 299.930394,126.971359 C300.263932,126.842297 299.083426,125.379406 300.186835,125.225734 C301.289698,125.072609 301.279856,127.342141 302.419899,127.664797 L300.494127,131.670656 Z" id="Fill-138" fill="#FFB677"></path>
                <mask id="mask-38" fill="white">
                    <use xlink:href="#path-37"></use>
                </mask>
                <g id="Clip-141"></g>
                <polygon id="Fill-140" fill="#FFD6A0" mask="url(#mask-38)" points="75.7180497 205.518359 78.9938304 205.518359 78.9938304 203.181563 75.7180497 203.181563"></polygon>
            </g>
            <g id="Group-145" transform="translate(68.000000, 135.500000)">
                <mask id="mask-40" fill="white">
                    <use xlink:href="#path-39"></use>
                </mask>
                <g id="Clip-144"></g>
                <path d="M0.373090909,1.41488189 L1.28945455,23.3077953 C1.28945455,23.3077953 6.54109091,50.6011811 7.35,69.6395276 L7.35,69.6395276 L10.6178182,69.6395276 C10.6178182,69.6395276 21.2787273,38.5474016 16.5616364,0.312519685 L16.5616364,0.312519685 L0.373090909,1.41488189 Z" id="Fill-143" fill="url(#linearGradient-41)" mask="url(#mask-40)"></path>
            </g>
            <g id="Group-148" transform="translate(56.000000, 133.500000)">
                <mask id="mask-43" fill="white">
                    <use xlink:href="#path-42"></use>
                </mask>
                <g id="Clip-147"></g>
                <path d="M0.419459459,4.38272727 C0.419459459,4.38272727 2.62756757,42.9261818 3.16054054,71.2009091 L3.16054054,71.2009091 C4.20432432,71.7774545 5.46810811,71.7774545 6.51189189,71.2009091 L6.51189189,71.2009091 C6.51189189,71.2009091 14.4308108,44.3847273 17.627027,24.102 L17.627027,24.102 C20.8232432,3.82036364 19.4032432,0.0283636364 19.4032432,0.0283636364 L19.4032432,0.0283636364 L0.419459459,4.38272727 Z" id="Fill-146" fill="url(#linearGradient-44)" mask="url(#mask-43)"></path>
            </g>
            <g id="Group-156" transform="translate(58.000000, 137.500000)">
                <polygon id="Fill-149" fill="#F3F7FF" points="2.40194118 1.3123622 2.69947059 1.3123622 2.69947059 0.380866142 2.40194118 0.380866142"></polygon>
                <path d="M1.4535,10.3376772 C1.16867647,10.8673622 0.824558824,11.3595669 0.4275,11.8038189 L0.648264706,12.0149213 C1.06014706,11.551378 1.41855882,11.0393307 1.71608824,10.489252 L1.4535,10.3376772 Z M2.39638235,6.87185039 C2.37308824,7.47870079 2.28097059,8.07948819 2.12161765,8.66374016 L2.41120588,8.74751969 C2.57532353,8.14011811 2.67061765,7.51452756 2.69497059,6.8834252 L2.39638235,6.87185039 Z M2.40220588,5.02318898 L2.70026471,5.02318898 L2.70026471,3.16681102 L2.40220588,3.16681102 L2.40220588,5.02318898 Z" id="Fill-151" fill="#F3F7FF"></path>
                <path d="M8.33998235,2.24595276 L8.04192353,2.23162205 C8.09486471,1.03280315 8.12451176,0.371937008 8.12451176,0.371385827 L8.42257059,0.385716535 C8.42257059,0.385716535 8.39451176,1.0487874 8.33998235,2.24595276" id="Fill-152" fill="#F3F7FF"></path>
                <path d="M7.97034706,9.74074803 L7.67281765,9.72366142 C7.74428824,8.34570866 7.80834706,7.09011811 7.86287647,5.97562992 L8.16093529,5.99161417 C8.10587647,7.10720472 8.04075882,8.36389764 7.96981765,9.74074803 L7.97034706,9.74074803 Z M7.55581765,17.2329528 L7.25775882,17.2142126 C7.33346471,15.9145276 7.40493529,14.6627953 7.47005294,13.4694882 L7.76705294,13.487126 C7.70193529,14.6809843 7.63099412,15.9316142 7.55528824,17.2329528 L7.55581765,17.2329528 Z M7.09787647,24.7212992 L6.79928824,24.7009055 C6.88134706,23.427126 6.96022941,22.179252 7.03487647,20.9572835 L7.33240588,20.9776772 C7.25722941,22.1968898 7.17887647,23.4475197 7.09734706,24.7212992 L7.09787647,24.7212992 Z M6.58964118,32.2068898 L6.29158235,32.1837402 C6.38211176,30.9259449 6.46893529,29.6791732 6.55258235,28.442874 L6.85011176,28.4649213 C6.76593529,29.6990157 6.67911176,30.9468898 6.58911176,32.2068898 L6.58964118,32.2068898 Z M6.02052353,39.6880709 L5.72352353,39.6616142 C5.82358235,38.4153937 5.92099412,37.1697244 6.01628824,35.9235039 L6.31328824,35.9477559 C6.21799412,37.1934252 6.12058235,38.4396457 6.01999412,39.6880709 L6.02052353,39.6880709 Z M5.3757,47.163189 L5.0787,47.1334252 C5.19305294,45.9004331 5.3037,44.6558661 5.4117,43.398622 L5.70922941,43.4272835 C5.60017059,44.682874 5.48899412,45.9274409 5.37517059,47.163189 L5.3757,47.163189 Z M4.62446471,54.6278346 L4.32799412,54.5931102 C4.46193529,53.3761024 4.59217059,52.133189 4.71922941,50.8654724 L5.0157,50.8974409 C4.88864118,52.1657087 4.75893529,53.4108268 4.62393529,54.6283858 L4.62446471,54.6278346 Z M3.71017059,62.0753937 L3.41528824,62.030748 C3.57358235,60.8732677 3.73822941,59.6226378 3.89811176,58.3152362 L4.19352353,58.3549213 C4.03364118,59.6634252 3.87111176,60.9151575 3.71017059,62.0753937 L3.71017059,62.0753937 Z" id="Fill-153" fill="#F3F7FF"></path>
                <path d="M2.85199412,67.5372677 L2.55446471,67.5372677 C2.65981765,66.950811 2.7657,66.3108898 2.86787647,65.6770315 L3.16222941,65.7293937 C3.05899412,66.3649055 2.95840588,66.9491575 2.85199412,67.5372677" id="Fill-154" fill="#F3F7FF"></path>
                <polygon id="Fill-155" fill="#FFD6A0" points="1.50723529 69.8925197 4.78852941 69.8925197 4.78852941 67.5373228 1.50723529 67.5373228"></polygon>
            </g>
            <g id="Group-159" transform="translate(58.000000, 204.500000)">
                <mask id="mask-46" fill="white">
                    <use xlink:href="#path-45"></use>
                </mask>
                <g id="Clip-158"></g>
                <path d="M4.38763636,0.667090909 C3.23509091,2.74090909 1.00690909,0.908181818 1.00690909,0.908181818 L1.00690909,0.908181818 C0.582545455,0.908181818 0.238909091,1.25236364 0.238909091,1.67727273 L0.238909091,1.67727273 L0.238909091,4.662 C0.238909091,5.12836364 0.617454545,5.50690909 1.08381818,5.50690909 L1.08381818,5.50690909 L11.8401818,5.50690909 C11.8401818,5.50690909 11.994,4.73836364 10.7389091,4.30309091 L10.7389091,4.30309091 C9.48436364,3.86781818 6.00163636,0.949090909 5.36127273,0.667090909 L5.36127273,0.667090909 C5.21181818,0.575454545 5.04327273,0.529636364 4.87472727,0.529636364 L4.87472727,0.529636364 C4.70618182,0.529636364 4.53709091,0.575454545 4.38763636,0.667090909" id="Fill-157" fill="url(#linearGradient-47)" mask="url(#mask-46)"></path>
            </g>
            <g id="Group-162" transform="translate(75.000000, 204.500000)">
                <mask id="mask-49" fill="white">
                    <use xlink:href="#path-48"></use>
                </mask>
                <g id="Clip-161"></g>
                <path d="M4.188,0.667090909 C3.03490909,2.74090909 0.807272727,0.908181818 0.807272727,0.908181818 L0.807272727,0.908181818 C0.383454545,0.908181818 0.0398181818,1.25236364 0.0398181818,1.67727273 L0.0398181818,1.67727273 L0.0398181818,4.662 C0.0398181818,5.12836364 0.417818182,5.50690909 0.884727273,5.50690909 L0.884727273,5.50690909 L11.6405455,5.50690909 C11.6405455,5.50690909 11.7943636,4.73836364 10.5398182,4.30309091 L10.5398182,4.30309091 C9.28418182,3.86781818 5.80145455,0.949090909 5.16109091,0.667090909 L5.16109091,0.667090909 C5.01163636,0.575454545 4.84309091,0.529636364 4.67454545,0.529636364 L4.67454545,0.529636364 C4.506,0.529636364 4.33745455,0.575454545 4.188,0.667090909" id="Fill-160" fill="url(#linearGradient-50)" mask="url(#mask-49)"></path>
            </g>
            <g id="Group-167" transform="translate(63.000000, 75.500000)">
                <path d="M3.12594545,11.4247636 L3.12594545,9.67330909 L2.41685455,7.45767273 L0.201763636,5.08876364 C0.201763636,5.08876364 -0.106418182,2.38058182 1.23758182,1.30494545 C2.58158182,0.229309091 9.72812727,0.248377566 9.72812727,0.248377566 L11.9186727,1.71130909 C11.9186727,1.71130909 11.9977636,7.87985455 11.9186727,9.21185455 C11.8406727,10.5438545 10.3810364,10.8253091 10.3810364,10.8253091 L10.3810364,13.8214909 C10.3810364,13.8214909 10.8670364,17.9702182 9.15158182,17.8425818 C7.43503636,17.7149455 3.79903636,13.6425818 3.79903636,13.6425818 L3.12594545,11.4247636 Z" id="Fill-163" fill="#FFD6A0"></path>
                <path d="M6.64205455,10.1605091 C5.0286,9.26432727 4.90150909,8.62396364 4.90150909,8.62396364 C4.90150909,8.62396364 4.79841818,10.8008727 5.92587273,11.1330545 C7.05223636,11.4652364 7.89714545,11.9010545 7.53932727,12.5670545 C7.18041818,13.2330545 9.86950909,13.7190545 8.92150909,15.9985091 C8.47696364,17.0686909 9.29569091,17.0097818 10.2900545,16.6465091 C10.4558727,15.7143273 10.4869636,14.7625091 10.3811455,13.8216 L10.3811455,10.8276 C9.09769091,10.9432364 7.8066,10.7130545 6.64205455,10.1605091" id="Fill-165" fill="#FFA06F"></path>
            </g>
            <g id="Group-170" transform="translate(62.000000, 70.500000)">
                <mask id="mask-52" fill="white">
                    <use xlink:href="#path-51"></use>
                </mask>
                <g id="Clip-169"></g>
                <path d="M2.23821429,1.02846154 C-0.454285714,2.758 -0.327321429,7.56161538 0.603214286,9.60992308 L0.603214286,9.60992308 C1.53428571,11.6571538 2.85589286,11.3566923 4.14107143,13.8567692 L4.14107143,13.8567692 L4.14107143,11.1768462 C4.14107143,11.1768462 1.68375,10.8995385 2.13696429,9.205 L2.13696429,9.205 C2.58910714,7.51153846 3.97285714,8.49746154 4.77803571,9.205 L4.77803571,9.205 C5.01642857,9.43653846 5.32339286,9.58246154 5.65178571,9.62069231 L5.65178571,9.62069231 C5.86232143,9.63738462 6.04607143,9.47907692 6.06267857,9.26692308 L6.06267857,9.26692308 C6.06696429,9.21361538 6.06,9.16030769 6.04232143,9.10915385 L6.04232143,9.10915385 C5.76107143,8.316 5.18946429,6.57246154 5.38178571,6.07061538 L5.38178571,6.07061538 C5.51946429,5.71038462 6.135,5.99576923 7.15178571,6.28169231 L7.15178571,6.28169231 C7.98857143,6.517 9.09803571,6.75176923 10.4378571,6.62630769 L10.4378571,6.62630769 C13.4046429,6.349 15.2426786,4.60438462 14.6892857,2.25238462 L14.6892857,2.25238462 C14.1353571,-0.0990769231 12.62625,1.64553846 9.85928571,1.72146154 L9.85928571,1.72146154 C8.81196429,1.75053846 7.85142857,1.41076923 6.91607143,1.07046154 L6.91607143,1.07046154 C6.01767857,0.744153846 5.14285714,0.417307692 4.23642857,0.417307692 L4.23642857,0.417307692 C3.5925,0.417307692 2.93303571,0.582076923 2.23821429,1.02846154" id="Fill-168" fill="url(#linearGradient-53)" mask="url(#mask-52)"></path>
            </g>
            <g id="Group-175" transform="translate(85.000000, 103.500000)">
                <path d="M0.3583125,19.9691692 L4.2875625,3.10132308 C4.3233125,2.94893846 4.4321875,2.82401538 4.57952083,2.76747692 L11.8373125,0.202246154 C12.0832292,0.108553846 12.3578542,0.229707692 12.4521042,0.473630769 C12.4867708,0.5614 12.4932708,0.657246154 12.4716042,0.749323077 L8.60789583,17.3565538 C8.57377083,17.5040923 8.47085417,17.6263231 8.33002083,17.6855538 L1.00614583,20.5114 C0.765104167,20.6131692 0.486145833,20.5011692 0.383770833,20.2610154 C0.344229167,20.1689385 0.335020833,20.0666308 0.3583125,19.9691692" id="Fill-171" fill="#2437A3"></path>
                <path d="M6.42774167,9.6432 C6.59674167,8.77950769 7.04578333,8.14035385 7.429825,8.21466154 C7.81386667,8.28896923 7.98774167,9.04927692 7.8182,9.91296923 C7.6492,10.7761231 7.2007,11.4158154 6.81665833,11.3415077 C6.43261667,11.2672 6.25874167,10.5068923 6.42774167,9.6432" id="Fill-173" fill="#F3F7FF"></path>
            </g>
            <g id="Group-178" transform="translate(86.000000, 112.500000)">
                <mask id="mask-55" fill="white">
                    <use xlink:href="#path-54"></use>
                </mask>
                <g id="Clip-177"></g>
                <path d="M1.6,0.754 C1.4275,1.061 1.076,1.223 0.7305,1.154 L0.7305,1.154 C0.3045,1.938 0.2195,2.8635 0.496,3.7125 L0.496,3.7125 L1.1385,3.8965 L1.993,0.204 C1.993,0.204 1.834,0.237 1.6,0.754" id="Fill-176" fill="url(#linearGradient-56)" mask="url(#mask-55)"></path>
            </g>
            <g id="Group-181" transform="translate(53.000000, 85.500000)">
                <mask id="mask-58" fill="white">
                    <use xlink:href="#path-57"></use>
                </mask>
                <g id="Clip-180"></g>
                <path d="M6.96136508,3.78771429 C3.48311111,5.42810204 1.1932381,8.91330612 1.02431746,12.8211429 L1.02431746,12.8211429 L0.148412698,33.2612449 C0.0383174603,35.8223878 1.98387302,37.990102 4.49285714,38.1019592 L4.49285714,38.1019592 C4.63587302,38.1085714 4.77888889,38.1080204 4.92244444,38.1003061 L4.92244444,38.1003061 L2.97473016,50.705449 C2.81444444,51.7457755 3.49930159,52.7254898 4.51498413,52.9095306 L4.51498413,52.9095306 C9.30304762,53.7856531 22.5263492,55.5417551 32.038254,50.4536327 L32.038254,50.4536327 C32.752254,50.0783878 33.1575556,49.2854694 33.0517778,48.4727143 L33.0517778,48.4727143 C32.6534921,45.5137347 31.4575556,38.3488163 31.0986667,35.1771429 L31.0986667,35.1771429 L31.8509841,34.990898 L31.5390476,31.4351633 L33.7085714,31.0637755 L33.7085714,28.269551 C32.8186349,28.2133469 31.948127,27.9857755 31.1418413,27.5989592 L31.1418413,27.5989592 L31.519619,11.5802449 C31.6745079,7.44208163 29.024127,3.73812245 25.115746,2.63167347 L25.115746,2.63167347 L21.0686667,1.36377551 L19.6190794,5.14267347 L13.8860317,0.519612245 L6.96136508,3.78771429 Z" id="Fill-179" fill="url(#linearGradient-59)" mask="url(#mask-58)"></path>
            </g>
            <g id="Group-184" transform="translate(84.000000, 113.500000)">
                <mask id="mask-61" fill="white">
                    <use xlink:href="#path-60"></use>
                </mask>
                <g id="Clip-183"></g>
                <path d="M0.7215,3.5255 L2.731,3.189 L2.731,0.654 C1.907,0.603 1.1,0.3965 0.353,0.0455 L0.353,0.0455 C0.364,1.2145 0.487,2.38 0.7215,3.5255" id="Fill-182" fill="url(#linearGradient-62)" mask="url(#mask-61)"></path>
            </g>
            <g id="Group-187" transform="translate(63.000000, 100.500000)">
                <mask id="mask-64" fill="white">
                    <use xlink:href="#path-63"></use>
                </mask>
                <g id="Clip-186"></g>
                <path d="M0.3916,13.3219677 C0.38665,13.3713226 0.38335,13.420129 0.3817,13.4694839 L0.3817,13.4694839 C0.33605,14.7033548 1.3024,15.7398065 2.5399,15.7847742 L2.5399,15.7847742 L21.6931,16.4795806 C17.46855,16.1275161 17.3976,14.1023226 15.17615,14.5711935 L15.17615,14.5711935 C12.9547,15.0400645 11.87065,14.5152581 10.4247,12.2882581 L10.4247,12.2882581 C8.97875,10.0607097 3.9193,12.2992258 5.1568,7.66535484 L5.1568,7.66535484 C6.39485,3.03093548 1.7468,0.197967742 1.7468,0.197967742 L1.7468,0.197967742 L0.3916,13.3219677 Z" id="Fill-185" fill="url(#linearGradient-65)" mask="url(#mask-64)"></path>
            </g>
            <g id="Group-190" transform="translate(55.000000, 120.500000)">
                <mask id="mask-67" fill="white">
                    <use xlink:href="#path-66"></use>
                </mask>
                <g id="Clip-189"></g>
                <path d="M2.25816981,3.35127273 L0.282339623,15.8323636 C0.132962264,16.7830909 0.714603774,17.6967273 1.64150943,17.9656364 L1.64150943,17.9656364 C2.18266038,15.9109091 3.79298113,16.8943636 3.38807547,15.1843636 L3.38807547,15.1843636 C2.92462264,13.2376364 4.263,12.1112727 8.93692453,11.1381818 L8.93692453,11.1381818 C13.6113962,10.1645455 9.29696226,6.57872727 14.4283208,5.094 L14.4283208,5.094 C19.5596792,3.60872727 28.7959057,0.457090909 28.7959057,0.457090909 L28.7959057,0.457090909 L2.25816981,3.35127273 Z" id="Fill-188" fill="url(#linearGradient-68)" mask="url(#mask-67)"></path>
            </g>
            <g id="Group-195" transform="translate(62.000000, 85.500000)">
                <path d="M0.460277778,2.26209375 L7.99861111,8.19404687 C9.43083333,9.32225 11.5208333,9.09365625 12.6675,7.6838125 C12.8780556,7.42459375 13.0469444,7.13584375 13.1691667,6.82685937 L14.9402778,2.34248437 L11.6841667,1.35810937 L10.1969444,5.1069375 L4.29305556,0.515375 L0.460277778,2.26209375 Z" id="Fill-191" fill="#FFFFFF"></path>
                <path d="M26.8410556,34.1437031 C26.0243889,34.3591719 25.1860556,34.4860469 24.3410556,34.5226875 C23.8071667,34.56425 23.2693889,34.5057344 22.7571667,34.349875 L22.4699444,31.2004219 C23.1005,31.0976094 23.7116111,30.9034687 24.2843889,30.6240156 C24.5810556,30.4358906 24.9510556,30.3981562 25.2799444,30.5222969 L25.0577222,31.471125 C25.0521667,31.4891719 25.0477222,31.5072187 25.0460556,31.5258125 C25.0143889,31.6794844 25.1177222,31.7751875 25.3555,31.8462813 C25.7749444,31.9758906 27.4149444,32.1197188 28.1455,31.5012031 C28.8749444,30.8826875 29.2682778,30.7219062 29.5282778,31.2020625 C29.7888333,31.6822187 29.6827222,33.4262031 26.8410556,34.1437031" id="Fill-193" fill="#FFD6A0"></path>
            </g>
            <g id="Group-198" transform="translate(86.000000, 115.500000)">
                <mask id="mask-70" fill="white">
                    <use xlink:href="#path-69"></use>
                </mask>
                <g id="Clip-197"></g>
                <path d="M0.4265,0.452 C0.3155,0.466 0.239,0.477333333 0.2335,0.478 L0.2335,0.478 C0.1425,0.756666667 0.106,1.06133333 0.1275,1.364 L0.1275,1.364 C0.1105,1.66466667 0.279,1.926 0.504,1.94933333 L0.504,1.94933333 C0.523,1.95133333 0.542,1.952 0.5615,1.95 L0.5615,1.95 L0.565,1.944 C0.5395,1.89066667 0.5305,1.826 0.54,1.764 L0.54,1.764 C0.542,1.74133333 0.546,1.71933333 0.551,1.698 L0.551,1.698 L0.7515,0.540666667 C0.6575,0.482 0.5555,0.451333333 0.4515,0.451333333 L0.4515,0.451333333 C0.4435,0.451333333 0.435,0.451333333 0.4265,0.452" id="Fill-196" fill="url(#linearGradient-71)" mask="url(#mask-70)"></path>
            </g>
        </g>
    </g>
</svg>